<svg height='100px' width='100px'  fill="#000000" xmlns="http://www.w3.org/2000/svg" xmlns:xlink="http://www.w3.org/1999/xlink" version="1.1" x="0px" y="0px" viewBox="0 0 100 100" style="enable-background:new 0 0 100 100;" xml:space="preserve"><path d="M91.5,26.5l5.1-0.5L92,23.8c-5.9-2.8-12.1-2.5-18.1,1c1.4-4.2,2.7-10.7,0.5-16.1l-2-4.8L71.6,9c0,0.1-1.7,11.4-10.8,20.7  c-4.2-2.2-8.7-2.5-13.5-0.9c-11.8,4-22.8,19.3-30,31.3C9.4,73.5,3.8,86.7,3.5,89.5c-0.3,2.2,0.2,4.1,1.4,5.3  c0.9,0.9,2.4,1.4,4.1,1.4c0.4,0,0.8,0,1.2-0.1c2.8-0.4,16-5.9,29.3-13.8c12.1-7.2,27.3-18.2,31.3-30c1.7-5,1.3-9.7-1.2-14  C78.3,27.9,91.4,26.5,91.5,26.5z M72.7,15.9c-0.2,5.7-2.8,11.2-3.1,11.8c-2.1,1.8-3.7,3.6-4.8,4.8c-0.5-0.5-1.1-0.9-1.6-1.3  C68.3,26,71.1,20.2,72.7,15.9z M67.6,51.2c-2.1,6.1-7.6,12.1-14.2,17.4l-8.2-8.2l-2.4,2.4l7.9,7.9c-2.9,2.2-5.9,4.2-8.8,6.1  l-3.1-3.1l-2.4,2.4l2.6,2.6c-0.4,0.2-0.8,0.5-1.2,0.7C24,87.5,11.5,92.5,9.7,92.7c-1.4,0.2-2.2-0.2-2.4-0.4c-0.2-0.2-0.6-1-0.4-2.4  C7,88.8,9,83.5,12.4,76.4l1,1l2.4-2.4L14,73.2c1.8-3.5,3.9-7.3,6.2-11.3c1-1.7,2.2-3.6,3.4-5.4l4.4,4.4l2.4-2.4l-4.9-4.9  c3-4.4,6.3-8.7,9.9-12.4l9.8,9.8l2.4-2.4l-9.8-9.8c3.4-3.1,7-5.6,10.6-6.8c1.7-0.6,3.3-0.8,4.8-0.8c3.7,0,7.1,1.6,10.4,4.9  C68.2,40.7,69.5,45.6,67.6,51.2z M66.9,34.6c1.2-1.5,3.4-4,6.4-6.1c4.2-2.9,8.3-4.2,12.4-3.7c-4.9,1.4-12,4.5-17.8,11  C67.6,35.4,67.3,35,66.9,34.6z"></path></svg>